name rise49.25peak52.1432fall72.8391.mot
datacolumns 19
datarows 15
range 2.13832300000000 2.16165900000000
endheader
time	ground_force1_vx	ground_force1_vy	ground_force1_vz	ground_force1_px	ground_force1_py	ground_force1_pz	ground_force2_vx	ground_force2_vy	ground_force2_vz	ground_force2_px	ground_force2_py	ground_force2_pz	ground_torque1_x	ground_torque1_y	ground_torque1_z	ground_torque2_x	ground_torque2_y	ground_torque2_z	
2.13832300000000	-38.41748500000000	784.24899300000004	53.35658200000000	0.16573300000000	0.00000000000000	0.10903700000000	0.00000000000000	0.00000000000000	0.00000000000000	0.00000000000000	0.00000000000000	0.00000000000000	0.00000000000000	26.69093900000000	0.00000000000000	0.00000000000000	0.00000000000000	0.00000000000000	
2.13999800000000	-39.08559100000000	783.72740799999997	53.40848800000000	0.16476300000000	0.00000000000000	0.10898100000000	-1.17810600000000	3.49099900000000	0.80026200000000	0.00000000000000	0.00000000000000	0.00000000000000	0.00000000000000	26.70172700000000	0.00000000000000	0.00000000000000	0.26201400000000	0.00000000000000	
2.14165400000000	-39.76666200000000	783.12601500000005	53.44609300000000	0.16379600000000	0.00000000000000	0.10892300000000	-1.87824500000000	6.81520200000000	1.35467600000000	0.00000000000000	0.00000000000000	0.00000000000000	0.00000000000000	26.71047000000000	0.00000000000000	0.00000000000000	0.45097000000000	0.00000000000000	
2.14332700000000	-40.46076100000000	782.44152399999996	53.46863900000000	0.16283200000000	0.00000000000000	0.10886200000000	-2.66820300000000	10.84365500000000	1.99742900000000	0.00000000000000	0.00000000000000	0.00000000000000	0.00000000000000	26.71707300000000	0.00000000000000	0.00000000000000	0.67146100000000	0.00000000000000	
2.14498700000000	-41.16791000000000	781.67058899999995	53.47537800000000	0.16187100000000	0.00000000000000	0.10879700000000	-3.52329300000000	15.53689400000000	2.71369400000000	0.00000000000000	0.00000000000000	0.00000000000000	0.00000000000000	26.72143500000000	0.00000000000000	0.00000000000000	0.91883500000000	0.00000000000000	
2.14666000000000	-41.88807900000000	780.80980299999999	53.46557900000000	0.16091500000000	0.00000000000000	0.10872900000000	-4.41278000000000	20.82474300000000	3.48368000000000	0.00000000000000	0.00000000000000	0.00000000000000	0.00000000000000	26.72345700000000	0.00000000000000	0.00000000000000	1.18674200000000	0.00000000000000	
2.14832100000000	-42.62119100000000	779.85570700000005	53.43852400000000	0.15996300000000	0.00000000000000	0.10865800000000	-5.30186200000000	26.61164000000000	4.28394400000000	0.32639600000000	0.00000000000000	-0.06709100000000	0.00000000000000	26.72304100000000	0.00000000000000	0.00000000000000	2.51011400000000	0.00000000000000	
2.14998700000000	-43.36711400000000	778.80478800000003	53.39351800000000	0.15901500000000	0.00000000000000	0.10858400000000	-6.15417200000000	32.78469600000000	5.08913000000000	0.33486400000000	0.00000000000000	-0.06728400000000	0.00000000000000	26.72008500000000	0.00000000000000	0.00000000000000	3.04303900000000	0.00000000000000	
2.15165800000000	-44.12566100000000	777.65348800000004	53.32988500000000	0.15807300000000	0.00000000000000	0.10850600000000	-6.93446700000000	39.22342500000000	5.87390300000000	0.34242100000000	0.00000000000000	-0.06746700000000	0.00000000000000	26.71448600000000	0.00000000000000	0.00000000000000	3.57804600000000	0.00000000000000	
2.15332200000000	-44.89658500000000	776.39820399999996	53.24697400000000	0.15713700000000	0.00000000000000	0.10842500000000	-7.61115800000000	45.80974400000000	6.61483300000000	0.34921600000000	0.00000000000000	-0.06764100000000	0.00000000000000	26.70614300000000	0.00000000000000	0.00000000000000	4.09970600000000	0.00000000000000	
2.15499400000000	-45.67958200000000	775.03529800000001	53.14415700000000	0.15620600000000	0.00000000000000	0.10834100000000	-8.15834000000000	52.43692700000000	7.29195900000000	0.35536500000000	0.00000000000000	-0.06780700000000	0.00000000000000	26.69495000000000	0.00000000000000	0.00000000000000	4.59430900000000	0.00000000000000	
2.15665700000000	-46.47428000000000	773.56109600000002	53.02083800000000	0.15528200000000	0.00000000000000	0.10825300000000	-8.55714600000000	59.01654800000000	7.88989900000000	0.36096200000000	0.00000000000000	-0.06796600000000	0.00000000000000	26.68080100000000	0.00000000000000	0.00000000000000	5.05069200000000	0.00000000000000	
2.15832000000000	-47.28024600000000	771.97190100000000	52.87645100000000	0.15436400000000	0.00000000000000	0.10816100000000	-8.79633700000000	65.48292400000000	8.39843000000000	0.36608500000000	0.00000000000000	-0.06812000000000	0.00000000000000	26.66358900000000	0.00000000000000	0.00000000000000	5.46074900000000	0.00000000000000	
2.15999400000000	-48.09697700000000	770.26399500000002	52.71046300000000	0.15345400000000	0.00000000000000	0.10806600000000	-8.87219100000000	71.79500700000000	8.81255800000000	0.37079700000000	0.00000000000000	-0.06826800000000	0.00000000000000	26.64320200000000	0.00000000000000	0.00000000000000	5.81960900000000	0.00000000000000	
2.16165900000000	-48.92390200000000	768.43364699999995	52.52237500000000	0.15255100000000	0.00000000000000	0.10796800000000	-8.78779200000000	77.93592000000000	9.13214400000000	0.37515000000000	0.00000000000000	-0.06841200000000	0.00000000000000	26.61953000000000	0.00000000000000	0.00000000000000	6.12552600000000	0.00000000000000	
